# AST/ASF file generated using VICON BodyLanguage
# -----------------------------------------------
:version 1.10
:name VICON
:units
  mass 1.0
  length 0.45
  angle deg
:documentation
   .ast/.asf automatically generated from VICON data using
   VICON BodyBuilder and BodyLanguage model FoxedUp or BRILLIANT.MOD
:root
   order TX TY TZ RX RY RZ
   axis XYZ
   position 0 0 0  
   orientation 0 0 0 
:bonedata
  begin
     id 1 
     name lhipjoint
     direction 0.560651 -0.75055 0.34978 
     length 2.44936 
     axis 0 0 0  XYZ
  end
  begin
     id 2 
     name lfemur
     direction 0.34202 -0.939693 0  
     length 7.42139  
     axis 0 0 20  XYZ
    dof rx ry rz
    limits (-160.0 20.0)
           (-70.0 70.0)
           (-60.0 70.0)
  end
  begin
     id 3 
     name ltibia
     direction 0.34202 -0.939693 0   
     length 7.75674   
     axis 0 0 20   XYZ
    dof rx
    limits (-10.0 170.0)
  end
  begin
     id 4 
     name lfoot
     direction 0.0925879 -0.254383 0.962661   
     length 2.38688   
     axis -90 7.62852e-016 20   XYZ
    dof rx rz
    limits (-45.0 90.0)
           (-70.0 20.0)
  end
  begin
     id 5 
     name ltoes
     direction 1.53567e-011 -4.21973e-011 1   
     length 1.19228   
     axis -90 7.62852e-016 20   XYZ
    dof rx
    limits (-90.0 20.0)
  end
  begin
     id 6 
     name rhipjoint
     direction -0.540087 -0.762838 0.355506   
     length 2.4099  
     axis 0 0 0  XYZ 
  end
  begin
     id 7 
     name rfemur
     direction -0.34202 -0.939693 0   
     length 7.70794   
     axis 0 0 -20   XYZ
    dof rx ry rz
    limits (-160.0 20.0)
           (-70.0 70.0)
           (-70.0 60.0)
  end
  begin
     id 8 
     name rtibia
     direction -0.34202 -0.939693 0   
     length 7.66106   
     axis 0 0 -20   XYZ
    dof rx
    limits (-10.0 170.0)
 end
 begin
     id 9 
     name rfoot
     direction -0.0830975 -0.228308 0.970036   
     length 2.4989  
     axis -90 -7.62852e-016 -20   XYZ
    dof rx rz
    limits (-45.0 90.0)
           (-20.0 70.0)
  end
  begin
     id 10 
     name rtoes
     direction -1.53517e-011 -4.21842e-011 1   
     length 1.2498   
     axis -90 -7.62852e-016 -20   XYZ
    dof rx
    limits (-90.0 20.0)
  end
  begin
     id 11 
     name lowerback
     direction 0.0266356 0.99402 -0.105896   
     length 2.1545   
     axis 0 0 0   XYZ
    dof rx ry rz
    limits (-20.0 45.0)
           (-30.0 30.0)
           (-30.0 30.0)
  end
  begin
     id 12 
     name upperback
     direction 0.0130547 0.999192 0.0380027   
     length 2.1434   
     axis 0 0 0   XYZ
    dof rx ry rz
    limits (-20.0 45.0)
           (-30.0 30.0)
           (-30.0 30.0)
  end
  begin
     id 13 
     name thorax
     direction 0.000590299 0.996288 0.0860764   
     length 2.19049   
     axis 0 0 0   XYZ
    dof rx ry rz
    limits (-20.0 45.0)
           (-30.0 30.0)
           (-30.0 30.0)
  end
  begin
     id 14 
     name lowerneck
     direction -0.0432125 0.978219 0.203028   
     length 1.62441   
     axis 0 0 0   XYZ
    dof rx ry rz
    limits (-20.0 45.0)
           (-30.0 30.0)
           (-30.0 30.0)
  end
  begin
     id 15 
     name upperneck
     direction -0.0192309 0.991699 -0.127138   
     length 1.66666   
     axis 0 0 0   XYZ
    dof rx ry rz
    limits (-20.0 45.0)
           (-30.0 30.0)
           (-30.0 30.0)
  end
  begin
     id 16
     name head
     direction -0.00434499 0.997882 -0.0649107  
     length 1.67142  
     axis 0 0 0   XYZ
    dof rx ry rz
    limits (-20.0 45.0)
           (-30.0 30.0)
           (-30.0 30.0)
  end
  begin
     id 17 
     name lclavicle
     direction 0.970351 0.240904 -0.0196058  
     length 4.04862  
     axis 0 0 0   XYZ
    dof ry rz
    limits (-20.0 10.0)
           (0.0 20.0)
  end
  begin
     id 18 
     name lhumerus
     direction 1 -4.4896e-011 -1.40911e-018   
     length 5.58345   
     axis 180 -30 -90   XYZ
    dof rx ry rz
    limits (-60.0 90.0)
           (-90.0 90.0)
           (-90.0 90.0)
  end
  begin
     id 19
     name lradius
     direction 1 -4.48968e-011 5.88912e-028   
     length 3.71087   
     axis 180 -30 -90   XYZ
    dof rx
    limits (-10.0 170.0)
  end
  begin
     id 20
     name lwrist
     direction 1 -4.48955e-011 -8.83775e-028   
     length 1.85544   
     axis 5.52448e-016 90 90   XYZ
    dof ry
    limits (-180.0 0.0)
 end
  begin
     id 21 
     name lhand
     direction 1 -4.49035e-011 -1.76755e-027   
     length 0.562322   
     axis 1.12785e-015 90 90   XYZ
    dof rx rz
    limits (-90.0 90.0)
           (-45.0 45.0)
  end
  begin
     id 22 
     name lfingers
     direction 1 -4.48824e-011 -3.5351e-027   
     length 0.453359   
     axis 2.2557e-015 90 90   XYZ
    dof rx
    limits (0.0 90.0)
  end
  begin
     id 23
     name lthumb
     direction 0.707107 -6.34888e-011 0.707107   
     length 0.650935   
     axis -90 45 2.85299e-015   XYZ
    dof rx rz
    limits (-45.0 45.0)
           (-45.0 45.0)
  end
  begin
     id 24 
     name rclavicle
     direction -0.96165 0.268562 -0.0557131   
     length 4.05446  
     axis 0 0 0   XYZ 
    dof ry rz
    limits (-10.0 20.0)
           (-20.0 0.0)
  end
  begin
     id 25 
     name rhumerus
     direction -1 -4.48957e-011 -3.36329e-027  
     length 5.20357   
     axis 180 30 90   XYZ
    dof rx ry rz
    limits (-90.0 60.0)
           (-90.0 90.0)
           (-90.0 90.0)
  end
  begin
     id 26 
     name rradius
     direction -1 -4.48974e-011 4.51441e-027   
     length 3.64937   
     axis 180 30 90   XYZ
    dof rx
    limits (-10.0 170.0)
  end
  begin
     id 27 
     name rwrist
     direction -1 -4.4896e-011 -8.83775e-028   
     length 1.82468   
     axis 5.52448e-016 -90 -90   XYZ
    dof ry
    limits (-180.0 0.0)
  end
  begin
     id 28
     name rhand
     direction -1 -4.48996e-011 -1.76755e-027   
     length 0.617996   
     axis 1.12785e-015 -90 -90   XYZ
    dof rx rz
    limits (-90.0 90.0)
           (-45.0 45.0)
  end
  begin
     id 29
     name rfingers
     direction -1 -4.48957e-011 -3.5351e-027   
     length 0.498244   
     axis 2.2557e-015 -90 -90   XYZ
    dof rx
    limits (0.0 90.0)
  end
  begin
     id 30
     name rthumb
     direction -0.707107 -6.34931e-011 0.707107   
     length 0.715382   
     axis -90 -45 -2.85299e-015   XYZ
    dof rx rz
    limits (-45.0 45.0)
           (-45.0 45.0)
  end
:hierarchy
  begin
    root lhipjoint rhipjoint lowerback
    lhipjoint lfemur
    lfemur ltibia
    ltibia lfoot
    lfoot ltoes
    rhipjoint rfemur
    rfemur rtibia
    rtibia rfoot
    rfoot rtoes
    lowerback upperback
    upperback thorax
    thorax lowerneck lclavicle rclavicle
    lowerneck upperneck
    upperneck head
    lclavicle lhumerus
    lhumerus lradius
    lradius lwrist
    lwrist lhand lthumb
    lhand lfingers
    rclavicle rhumerus
    rhumerus rradius
    rradius rwrist
    rwrist rhand rthumb
    rhand rfingers
  end

#!OML:ASF H:\ManfredETheater\Project 1\Capture day 2\Session 1\Male1.ASF
:FULLY-SPECIFIED
:DEGREES
189
root 2.68499 17.969 16.1567 3.41345 0.758978 -3.4443
lowerback 3.6017 -0.181768 3.58852
upperback -2.94425 0.128747 3.42792
thorax -5.07811 0.00277796 1.53389
lowerneck -23.3383 0.753008 0.0782292
upperneck 22.8348 2.63246 -5.69768
head 11.4 0.437818 -1.68409
rclavicle -1.11319e-014 1.35174e-014
rhumerus -31.9706 -14.1737 -78.6254
rradius 28.5218
rwrist 6.58861
rhand -28.0458 -11.6604
rfingers 7.12502
rthumb -1.43017 -41.6353
lclavicle -1.11319e-014 1.35174e-014
lhumerus -39.653 5.11183 87.5584
lradius 38.276
lwrist -8.37221
lhand -7.17017 9.35012
lfingers 7.12502
lthumb 18.7071 38.4706
rfemur -7.72634 0.546764 23.9644
rtibia 29.1653
rfoot -18.4922 -1.74218
rtoes 4.52327
lfemur -9.28626 -3.93904 -17.4697
ltibia 30.4197
lfoot -18.45 -0.0811211
ltoes 5.1678
190
root 2.68956 17.9657 16.1684 3.45893 0.72094 -3.46844
lowerback 3.62215 -0.169678 3.59288
upperback -2.95147 0.146261 3.41688
thorax -5.09731 0.0108755 1.51881
lowerneck -23.3451 0.750301 0.103042
upperneck 22.7928 2.60888 -5.66873
head 11.384 0.434003 -1.68074
rclavicle 6.90777e-015 -1.43125e-014
rhumerus -31.9056 -14.0498 -78.7177
rradius 28.4924
rwrist 6.64992
rhand -28.0497 -11.9967
rfingers 7.12502
rthumb -1.43396 -41.9716
lclavicle 6.90777e-015 -1.43125e-014
lhumerus -39.712 5.10724 87.5207
lradius 38.2347
lwrist -8.40111
lhand -7.11559 9.31065
lfingers 7.12502
lthumb 18.7596 38.4261
rfemur -7.73102 0.573047 23.9701
rtibia 29.1671
rfoot -18.566 -1.75427
rtoes 4.36179
lfemur -9.30082 -3.91993 -17.4634
ltibia 30.4576
lfoot -18.5542 -0.0230748
ltoes 5.24518
191
root 2.69488 17.9621 16.1798 3.4929 0.728538 -3.48775
lowerback 3.66223 -0.177325 3.58355
upperback -2.9521 0.138563 3.42917
thorax -5.12094 0.00743459 1.53775
lowerneck -23.3626 0.759764 0.0708769
upperneck 22.7585 2.6162 -5.6115
head 11.3731 0.442409 -1.65249
rclavicle 1.16538e-014 -1.11319e-014
rhumerus -31.8211 -13.9073 -78.7622
rradius 28.4261
rwrist 6.60968
rhand -28.0281 -11.8902
rfingers 7.12502
rthumb -1.41302 -41.8653
lclavicle 1.16538e-014 -1.11319e-014
lhumerus -39.757 5.11348 87.5346
lradius 38.212
lwrist -8.31659
lhand -7.04554 9.38015
lfingers 7.12502
lthumb 18.827 38.489
rfemur -7.72781 0.525984 23.9632
rtibia 29.1753
rfoot -18.6393 -1.73376
rtoes 4.21863
lfemur -9.31027 -3.92806 -17.4631
ltibia 30.498
lfoot -18.6646 0.00910077
ltoes 5.30621
192
root 2.69986 17.9582 16.1924 3.52468 0.690889 -3.51065
lowerback 3.71205 -0.157869 3.59101
upperback -2.96418 0.168642 3.42775
thorax -5.16212 0.021632 1.53019
lowerneck -23.3849 0.738419 0.0588964
upperneck 22.7353 2.58283 -5.58791
head 11.3667 0.429502 -1.64698
rclavicle 9.25591e-015 -4.92986e-014
rhumerus -31.8065 -13.8171 -78.7941
rradius 28.4294
rwrist 6.60037
rhand -28.0171 -11.9597
rfingers 7.12502
rthumb -1.40238 -41.9348
lclavicle 9.25591e-015 -4.92986e-014
lhumerus -39.823 5.10281 87.5349
lradius 38.1685
lwrist -8.32791
lhand -6.99039 9.41973
lfingers 7.12502
lthumb 18.8801 38.5235
rfemur -7.71945 0.536647 23.9591
rtibia 29.1865
rfoot -18.7238 -1.72536
rtoes 4.12065
lfemur -9.30898 -3.92544 -17.4663
ltibia 30.5363
lfoot -18.7667 0.0801358
ltoes 5.38175
193
root 2.70515 17.954 16.2035 3.56788 0.681595 -3.55485
lowerback 3.73824 -0.149216 3.62647
upperback -2.95232 0.183546 3.43124
thorax -5.16469 0.0278373 1.5128
lowerneck -23.4408 0.734243 0.0439038
upperneck 22.7035 2.57243 -5.55538
head 11.364 0.427524 -1.63388
rclavicle 2.31087e-015 3.97569e-015
rhumerus -31.7521 -13.783 -78.8179
rradius 28.4255
rwrist 6.6841
rhand -27.9938 -11.9173
rfingers 7.12502
rthumb -1.37994 -41.8926
lclavicle 2.31087e-015 3.97569e-015
lhumerus -39.8318 5.08987 87.5351
lradius 38.153
lwrist -8.35424
lhand -6.88902 9.33434
lfingers 7.12502
lthumb 18.9776 38.4285
rfemur -7.7258 0.474612 23.9774
rtibia 29.2003
rfoot -18.8156 -1.68757
rtoes 3.88034
lfemur -9.33436 -3.92337 -17.4373
ltibia 30.5807
lfoot -18.8779 0.105704
ltoes 5.55146
194
root 2.70969 17.9498 16.2145 3.61485 0.679189 -3.56089
lowerback 3.77318 -0.142912 3.59728
upperback -2.9507 0.192456 3.4348
thorax -5.18298 0.0332338 1.53232
lowerneck -23.4827 0.722168 0.0678313
upperneck 22.649 2.54854 -5.57136
head 11.351 0.417187 -1.64707
rclavicle 7.09413e-015 1.11319e-014
rhumerus -31.7014 -13.7378 -78.8327
rradius 28.4063
rwrist 6.728
rhand -27.9246 -11.9612
rfingers 7.12502
rthumb -1.31312 -41.9369
lclavicle 7.09413e-015 1.11319e-014
lhumerus -39.8621 5.05757 87.5545
lradius 38.1564
lwrist -8.36051
lhand -6.79937 9.40013
lfingers 7.12502
lthumb 19.0638 38.4859
rfemur -7.74739 0.413263 23.9547
rtibia 29.2196
rfoot -18.8975 -1.64715
rtoes 3.67944
lfemur -9.36482 -3.92722 -17.4486
ltibia 30.6281
lfoot -18.9854 0.137514
ltoes 5.72505
195
root 2.71367 17.945 16.2266 3.64499 0.684985 -3.58676
lowerback 3.81685 -0.139815 3.59576
upperback -2.94994 0.19947 3.44088
thorax -5.2072 0.0366859 1.53921
lowerneck -23.4784 0.71536 0.0357088
upperneck 22.5863 2.53443 -5.52654
head 11.3248 0.415213 -1.62647
rclavicle -9.56651e-015 -2.54444e-014
rhumerus -31.7086 -13.7402 -78.8298
rradius 28.4278
rwrist 6.75528
rhand -27.8522 -11.9786
rfingers 7.12502
rthumb -1.24319 -41.9547
lclavicle -9.56651e-015 -2.54444e-014
lhumerus -39.8836 5.03777 87.5675
lradius 38.1316
lwrist -8.32784
lhand -6.70725 9.44192
lfingers 7.12502
lthumb 19.1524 38.5189
rfemur -7.7422 0.359677 23.9562
rtibia 29.2439
rfoot -19.0016 -1.6002
rtoes 3.56775
lfemur -9.37761 -3.93629 -17.4374
ltibia 30.6798
lfoot -19.1013 0.170803
ltoes 5.75842
196
root 2.71831 17.9401 16.2373 3.6758 0.664036 -3.61511
lowerback 3.89346 -0.126637 3.60245
upperback -2.94673 0.221892 3.43675
thorax -5.24762 0.047131 1.52976
lowerneck -23.5064 0.70498 0.0986407
upperneck 22.5059 2.50702 -5.57904
head 11.3004 0.40265 -1.65977
rclavicle 4.21175e-015 -8.74653e-015
rhumerus -31.7099 -13.7276 -78.861
rradius 28.4763
rwrist 6.7404
rhand -27.8664 -11.9866
rfingers 7.12502
rthumb -1.25688 -41.9626
lclavicle 4.21175e-015 -8.74653e-015
lhumerus -39.9162 4.97301 87.5735
lradius 38.1379
lwrist -8.19259
lhand -6.5977 9.50799
lfingers 7.12502
lthumb 19.2577 38.5745
rfemur -7.75123 0.347971 23.9573
rtibia 29.275
rfoot -19.0864 -1.57575
rtoes 3.49169
lfemur -9.3872 -3.98085 -17.4314
ltibia 30.7328
lfoot -19.2241 0.255982
ltoes 5.93997
197
root 2.7231 17.9341 16.2492 3.68875 0.670785 -3.61297
lowerback 3.9732 -0.117497 3.60123
upperback -2.9375 0.237764 3.42107
thorax -5.2834 0.0544563 1.51314
lowerneck -23.5225 0.693771 0.0788233
upperneck 22.436 2.4853 -5.54531
head 11.2754 0.39668 -1.64656
rclavicle 8.4235e-015 -2.06736e-014
rhumerus -31.722 -13.7358 -78.8752
rradius 28.5126
rwrist 6.66859
rhand -27.861 -12.0815
rfingers 7.12502
rthumb -1.25168 -42.0576
lclavicle 8.4235e-015 -2.06736e-014
lhumerus -39.9574 4.92934 87.5813
lradius 38.1728
lwrist -8.21187
lhand -6.56038 9.62772
lfingers 7.12502
lthumb 19.2936 38.6906
rfemur -7.73338 0.233607 23.9216
rtibia 29.3132
rfoot -19.2088 -1.50132
rtoes 3.28493
lfemur -9.37981 -3.96781 -17.451
ltibia 30.7899
lfoot -19.3656 0.251873
ltoes 6.14545
198
root 2.72794 17.9285 16.2615 3.71752 0.670014 -3.64372
lowerback 4.06226 -0.10354 3.61651
upperback -2.94539 0.263446 3.42301
thorax -5.34266 0.0660995 1.50507
lowerneck -23.564 0.679636 0.111181
upperneck 22.3824 2.46181 -5.58396
head 11.2632 0.384236 -1.66944
rclavicle -5.23052e-015 2.70347e-014
rhumerus -31.779 -13.6826 -78.8876
rradius 28.6001
rwrist 6.5022
rhand -27.8753 -12.0792
rfingers 7.12502
rthumb -1.26543 -42.0552
lclavicle -5.23052e-015 2.70347e-014
lhumerus -39.9775 4.90604 87.5958
lradius 38.1376
lwrist -8.26735
lhand -6.47727 9.62038
lfingers 7.12502
lthumb 19.3735 38.6753
rfemur -7.73207 0.1846 23.927
rtibia 29.3525
rfoot -19.314 -1.46614
rtoes 3.14426
lfemur -9.38931 -3.97778 -17.4392
ltibia 30.8569
lfoot -19.4914 0.310897
ltoes 6.21881
199
root 2.73207 17.9222 16.2737 3.74296 0.666554 -3.64427
lowerback 4.13364 -0.0857592 3.60008
upperback -2.93034 0.289413 3.41454
thorax -5.36761 0.0792507 1.50338
lowerneck -23.6187 0.664299 0.0314672
upperneck 22.3175 2.43839 -5.48174
head 11.2455 0.380541 -1.62152
rclavicle -1.38528e-015 -6.36111e-015
rhumerus -31.7874 -13.6479 -78.9126
rradius 28.6641
rwrist 6.27246
rhand -27.8672 -12.11
rfingers 7.12502
rthumb -1.25765 -42.0861
lclavicle -1.38528e-015 -6.36111e-015
lhumerus -39.9617 4.86556 87.6201
lradius 38.1234
lwrist -8.21986
lhand -6.6149 9.54923
lfingers 7.12502
lthumb 19.2412 38.6174
rfemur -7.73134 0.145445 23.9046
rtibia 29.3943
rfoot -19.4286 -1.44404
rtoes 2.97447
lfemur -9.40542 -3.98597 -17.457
ltibia 30.934
lfoot -19.6403 0.353807
ltoes 6.35249
200
root 2.73678 17.9159 16.2867 3.76206 0.685021 -3.69314
lowerback 4.24042 -0.0750235 3.65065
upperback -2.94339 0.3142 3.40968
thorax -5.44237 0.0888072 1.46863
lowerneck -23.648 0.637568 0.0378619
upperneck 22.2698 2.39866 -5.49072
head 11.2319 0.362441 -1.63183
rclavicle -7.2867e-015 -2.14687e-014
rhumerus -31.878 -13.6348 -78.9285
rradius 28.7698
rwrist 6.03601
rhand -27.8623 -12.201
rfingers 7.12502
rthumb -1.25294 -42.177
lclavicle -7.2867e-015 -2.14687e-014
lhumerus -40.0439 4.72633 87.6992
lradius 38.0665
lwrist -7.64144
lhand -7.53821 8.82686
lfingers 7.12502
lthumb 18.3531 37.981
rfemur -7.71282 0.0750734 23.932
rtibia 29.4166
rfoot -19.5269 -1.41657
rtoes 2.85456
lfemur -9.42097 -4.03459 -17.4264
ltibia 31.0394
lfoot -19.8024 0.41286
ltoes 6.48886
201
root 2.74063 17.9092 16.299 3.79024 0.699561 -3.77076
lowerback 4.3162 -0.0721016 3.70225
upperback -2.93672 0.326852 3.42653
thorax -5.47884 0.0931815 1.45654
lowerneck -23.669 0.630426 0.00188716
upperneck 22.185 2.38249 -5.43695
head 11.2021 0.360402 -1.60749
rclavicle -1.17407e-015 7.15625e-015
rhumerus -31.9341 -13.57 -78.9656
rradius 28.8918
rwrist 5.7631
rhand -27.861 -12.3033
rfingers 7.12502
rthumb -1.25164 -42.2794
lclavicle -1.17407e-015 7.15625e-015
lhumerus -40.0645 4.58308 87.8134
lradius 38.0204
lwrist -6.85963
lhand -8.43282 8.32507
lfingers 7.12502
lthumb 17.4923 37.5581
rfemur -7.71719 0.0358218 24.0037
rtibia 29.4659
rfoot -19.637 -1.41703
rtoes 2.72608
lfemur -9.44884 -4.07061 -17.3593
ltibia 31.1298
lfoot -19.947 0.469327
ltoes 6.6939
202
root 2.74685 17.9071 16.3145 3.81072 0.703247 -3.73872
lowerback 4.38517 -0.0595601 3.68153
upperback -2.92371 0.34469 3.40258
thorax -5.5044 0.102119 1.44171
lowerneck -23.734 0.614453 0.010131
upperneck 22.1409 2.35809 -5.44587
head 11.1971 0.348777 -1.61579
rclavicle -1.68967e-014 1.98785e-014
rhumerus -32.0001 -13.5992 -78.9697
rradius 29.0089
rwrist 5.45885
rhand -27.7373 -12.1976
rfingers 7.12502
rthumb -1.13222 -42.1743
lclavicle -1.68967e-014 1.98785e-014
lhumerus -40.0625 4.55649 87.8185
lradius 38.0081
lwrist -6.86048
lhand -8.51541 8.2741
lfingers 7.12502
lthumb 17.4129 37.5142
rfemur -7.68599 -0.074057 23.9296
rtibia 29.486
rfoot -19.7541 -1.35514
rtoes 2.43481
lfemur -9.49578 -4.0992 -17.4341
ltibia 31.2591
lfoot -20.0609 0.535514
ltoes 6.82713
